<svg xmlns="http://www.w3.org/2000/svg" viewBox="0 0 108.82 90.61"><defs><style>.cls-1{fill:none;stroke:#010101;stroke-miterlimit:10;stroke-width:3px;}</style></defs><g id="Layer_2" data-name="Layer 2"><g id="Layer_1-2" data-name="Layer 1"><path class="cls-1" d="M77.31,1.5h0a29.72,29.72,0,0,0-22.9,10.58A29.38,29.38,0,0,0,31.5,1.5a30,30,0,0,0-30,30C1.5,59.9,51.06,87.63,53.07,88.7a2.42,2.42,0,0,0,2.68,0c2-1.07,51.57-28.4,51.57-57.19A30,30,0,0,0,77.31,1.5ZM54.41,81.73C47,77.37,8.86,54.15,8.86,32.08A23.61,23.61,0,0,1,32.47,8.47,23.1,23.1,0,0,1,52.23,19.12a2.7,2.7,0,0,0,3.76.6,2.84,2.84,0,0,0,.6-.6,23.6,23.6,0,0,1,43.36,13C100,54.4,61.85,77.5,54.41,81.73Z"/></g></g></svg>