<svg xmlns="http://www.w3.org/2000/svg" viewBox="0 0 110.43 83.6"><defs><style>.cls-1{fill:none;stroke:#010101;stroke-miterlimit:10;stroke-width:3px;}</style></defs><g id="Layer_2" data-name="Layer 2"><g id="Layer_1-2" data-name="Layer 1"><path class="cls-1" d="M68.48,2.59l-3.64-1a1.61,1.61,0,0,0-1.38.15,1.9,1.9,0,0,0-.91,1.14L40.65,78.67a1.8,1.8,0,0,0,.15,1.44A1.89,1.89,0,0,0,42,81l3.64,1A1.62,1.62,0,0,0,47,81.87a1.91,1.91,0,0,0,.91-1.15L69.77,4.94a1.73,1.73,0,0,0-.15-1.44A1.86,1.86,0,0,0,68.48,2.59Z"/><path class="cls-1" d="M35.67,17.38A1.86,1.86,0,0,0,35.08,16L32.14,13.1a1.84,1.84,0,0,0-2.7,0L2.09,40.45a1.84,1.84,0,0,0,0,2.7L29.44,70.51a1.86,1.86,0,0,0,2.7,0l2.94-2.94a1.84,1.84,0,0,0,0-2.7L12,41.8,35.08,18.73A1.86,1.86,0,0,0,35.67,17.38Z"/><path class="cls-1" d="M108.34,40.45,81,13.1a1.84,1.84,0,0,0-2.7,0L75.35,16a1.84,1.84,0,0,0,0,2.7L98.42,41.8,75.35,64.87a1.84,1.84,0,0,0,0,2.7l2.93,2.94a1.86,1.86,0,0,0,2.7,0l27.36-27.36a1.84,1.84,0,0,0,0-2.7Z"/></g></g></svg>