<svg xmlns="http://www.w3.org/2000/svg" viewBox="0 0 111.23 85.51"><defs><style>.cls-1{fill:#010101;}</style></defs><g id="Layer_2" data-name="Layer 2"><g id="Layer_1-2" data-name="Layer 1"><path class="cls-1" d="M111.23,77.53v0l0-.19v0s0-.11,0-.16l0,0-.06-.14v0l-8.72-17.18V3.15A3.15,3.15,0,0,0,99.19,0H12A3.16,3.16,0,0,0,8.89,3.15V59.71L.18,76.89v0a.91.91,0,0,0-.07.14v0a1,1,0,0,0,0,.16v0a.63.63,0,0,0,0,.19v0a.34.34,0,0,0,0,.1v4.13a3.75,3.75,0,0,0,3.75,3.75H107.49a3.75,3.75,0,0,0,3.74-3.75V77.53ZM12.15,3.26H99.08V58.47H12.15Zm-.63,58.46H99.71L107,76H71.15l-1.79-6.51a3.09,3.09,0,0,0-3-2.26H44.84a3.07,3.07,0,0,0-3,2.26L40.08,76H4.28ZM67.77,76H43.46L45,70.49H66.25ZM108,81.76a.49.49,0,0,1-.49.49H3.75a.49.49,0,0,1-.49-.49v-2.5H108Z"/><path class="cls-1" d="M95.61,9.29a2.56,2.56,0,0,0-2.56-2.55H18.18a2.55,2.55,0,0,0-2.55,2.55V52.43A2.56,2.56,0,0,0,18.18,55H93.05a2.56,2.56,0,0,0,2.56-2.56V35.21h0ZM92.35,51.73H18.88V10H92.35V51.73Z"/></g></g></svg>