<svg xmlns="http://www.w3.org/2000/svg" viewBox="0 0 49.68 49.68"><defs><style>.cls-1{fill:#010101;}</style></defs><g id="Layer_2" data-name="Layer 2"><g id="Layer_1-2" data-name="Layer 1"><path class="cls-1" d="M36.23,0H13.45A13.46,13.46,0,0,0,0,13.45V36.23A13.46,13.46,0,0,0,13.45,49.68H36.23A13.46,13.46,0,0,0,49.68,36.23V13.45A13.46,13.46,0,0,0,36.23,0ZM24.84,38.42A13.58,13.58,0,1,1,38.42,24.84,13.59,13.59,0,0,1,24.84,38.42Zm13.91-24a4,4,0,1,1,4-4A4,4,0,0,1,38.75,14.46Z"/><path class="cls-1" d="M24.84,14.17A10.67,10.67,0,1,0,35.51,24.84,10.67,10.67,0,0,0,24.84,14.17Z"/><path class="cls-1" d="M38.75,9.34a1.11,1.11,0,1,0,1.1,1.11A1.11,1.11,0,0,0,38.75,9.34Z"/></g></g></svg>