<svg xmlns="http://www.w3.org/2000/svg" viewBox="0 0 52 49.7"><defs><style>.cls-1{fill:#010101;}</style></defs><g id="Layer_2" data-name="Layer 2"><g id="Layer_1-2" data-name="Layer 1"><path class="cls-1" d="M6.31,0C2.49,0,0,2.5,0,5.79s2.42,5.8,6.16,5.8h.07c3.89,0,6.31-2.58,6.31-5.8S10.12,0,6.31,0Z"/><path class="cls-1" d="M.66,16.17H11.81V49.7H.66Z"/><path class="cls-1" d="M39.17,15.38c-6,0-10,5.65-10,5.65V16.17H18V49.7H29.12V31a7.55,7.55,0,0,1,.37-2.73,6.09,6.09,0,0,1,5.72-4.07c4,0,5.64,3.07,5.64,7.58V49.7H52V30.47C52,20.17,46.5,15.38,39.17,15.38Z"/></g></g></svg>